<svg xmlns="http://www.w3.org/2000/svg" width="24" height="24" viewBox="0 0 24 24">
    <g fill="none" fill-rule="evenodd">
        <path fill="#000" fill-rule="nonzero" d="M18.484 19c.285 0 .516.224.516.5s-.23.5-.516.5H5.516A.508.508 0 0 1 5 19.5c0-.276.231-.5.516-.5zM11.617 4.33a1.345 1.345 0 0 1 1.766 0l4.44 3.887c.218.191.237.52.042.733a.534.534 0 0 1-.748.042L13.03 5.415V15.48c0 .286-.237.519-.53.519a.525.525 0 0 1-.53-.52V5.416L7.883 8.992a.538.538 0 0 1-.748-.042.512.512 0 0 1 .042-.733z"/>
    </g>
</svg>
